<?xml version="1.0" standalone="no"?>
<!DOCTYPE svg PUBLIC "-//W3C//DTD SVG 20010904//EN"
 "http://www.w3.org/TR/2001/REC-SVG-20010904/DTD/svg10.dtd">
<svg version="1.0" xmlns="http://www.w3.org/2000/svg"
 width="231.000000pt" height="221.000000pt" viewBox="0 0 231.000000 221.000000"
 preserveAspectRatio="xMidYMid meet">

<g transform="translate(0.000000,221.000000) scale(0.100000,-0.100000)"
fill="#000000" stroke="none">
<path d="M878 2203 c155 -2 409 -2 565 0 155 1 28 2 -283 2 -311 0 -438 -1
-282 -2z"/>
<path d="M26 2119 l-26 -20 0 -423 c0 -417 0 -423 21 -442 20 -18 43 -19 329
-22 l309 -3 33 30 33 29 3 379 c2 208 0 393 -3 412 -4 18 -18 44 -32 57 l-26
24 -307 0 c-296 0 -308 -1 -334 -21z m614 -404 l0 -305 -285 0 -285 0 0 305 0
305 285 0 285 0 0 -305z m-242 -367 c20 -20 14 -65 -10 -82 -30 -21 -44 -20
-68 4 -24 24 -26 53 -4 74 18 19 65 21 82 4z"/>
<path d="M187 1783 c-26 -26 12 -80 47 -67 21 8 30 42 16 59 -13 15 -51 20
-63 8z"/>
<path d="M798 1691 c-56 -45 -45 -114 26 -156 58 -34 62 -59 9 -53 -21 3 -46
8 -55 12 -15 7 -18 3 -18 -28 0 -30 5 -38 26 -46 65 -25 136 -1 153 53 16 48
0 82 -54 115 -59 36 -60 57 -1 49 41 -6 44 -5 51 20 8 35 -4 45 -62 50 -38 4
-53 1 -75 -16z"/>
<path d="M1001 1660 c-5 -17 -17 -33 -26 -36 -19 -8 -20 -44 0 -44 12 0 15
-14 15 -69 0 -61 3 -72 22 -85 44 -31 98 -17 98 25 0 24 -4 29 -25 29 -23 0
-25 3 -25 50 0 47 2 50 25 50 21 0 25 5 25 30 0 25 -4 30 -25 30 -20 0 -25 5
-25 25 0 20 -5 25 -24 25 -18 0 -27 -8 -35 -30z"/>
<path d="M1190 1633 c-94 -48 -61 -223 43 -223 73 0 120 76 98 158 -18 67 -80
95 -141 65z m65 -108 c0 -43 -3 -50 -20 -50 -16 0 -21 8 -23 39 -4 49 3 68 25
64 14 -3 18 -14 18 -53z"/>
<path d="M1480 1642 c-8 -2 -23 -11 -32 -20 -16 -14 -18 -13 -18 1 0 12 -9 17
-30 17 l-31 0 3 -112 3 -113 35 0 35 0 5 75 c5 73 6 75 33 78 15 2 27 9 27 15
0 7 3 22 6 33 6 23 -10 35 -36 26z"/>
<path d="M1601 1641 c-41 -11 -66 -55 -66 -118 0 -49 3 -58 33 -84 51 -46 152
-36 152 15 0 22 -3 24 -51 22 -76 -2 -78 22 -2 26 56 3 58 4 61 32 5 44 -17
87 -54 102 -36 15 -37 15 -73 5z m59 -72 c0 -5 -11 -9 -25 -9 -26 0 -34 15
-12 23 16 5 37 -3 37 -14z"/>
<path d="M1020 1005 l0 -165 70 0 69 0 3 -72 3 -73 77 -3 77 -3 3 -67 3 -67
293 -3 292 -2 -2 167 -3 168 -77 3 -78 3 0 64 0 65 -70 0 -70 0 0 75 0 75
-295 0 -295 0 0 -165z m574 124 c3 -17 6 -47 6 -65 l0 -34 -220 0 -220 0 0
-25 c0 -14 -4 -25 -10 -25 -5 0 -10 -7 -10 -15 0 -8 5 -15 10 -15 6 0 10 -22
10 -50 l0 -50 -65 0 -65 0 0 139 c0 77 3 146 6 155 5 14 39 16 279 16 l273 0
6 -31z m127 -127 c12 -2 16 -15 18 -57 l2 -55 -210 0 -211 0 0 -25 c0 -16 -7
-28 -17 -31 -10 -3 -25 -9 -34 -14 -9 -4 -22 -4 -30 1 -34 21 -41 -9 -9 -41
25 -25 40 -26 33 -1 -6 23 10 34 37 26 16 -5 19 -14 17 -53 l-2 -47 -65 4
c-36 2 -66 4 -67 5 -2 1 -5 243 -4 272 1 21 3 21 264 19 144 -1 269 -3 278 -3z
m177 -284 l-3 -153 -85 -3 c-47 -2 -171 0 -276 3 l-191 7 -5 137 c-3 75 -3
142 0 149 3 9 69 12 283 12 l280 0 -3 -152z"/>
<path d="M1078 1143 c17 -2 47 -2 65 0 17 2 3 4 -33 4 -36 0 -50 -2 -32 -4z"/>
<path d="M1417 1143 c18 -2 50 -2 70 0 21 2 7 4 -32 4 -38 0 -55 -2 -38 -4z"/>
<path d="M1065 971 c-3 -5 0 -21 6 -35 13 -27 49 -36 49 -12 0 8 2 20 3 28 2
7 2 9 -1 5 -2 -4 -15 -1 -27 7 -13 9 -26 12 -30 7z"/>
<path d="M1398 853 c23 -2 61 -2 85 0 23 2 4 4 -43 4 -47 0 -66 -2 -42 -4z"/>
<path d="M1738 853 c23 -2 61 -2 85 0 23 2 4 4 -43 4 -47 0 -66 -2 -42 -4z"/>
<path d="M1370 673 c0 -19 28 -53 43 -53 4 0 7 11 7 25 0 29 24 33 58 9 20
-14 23 -14 29 1 8 23 -15 37 -52 30 -45 -8 -48 -8 -67 0 -14 5 -18 2 -18 -12z"/>
<path d="M340 1116 c0 -2 8 -10 18 -17 15 -13 16 -12 3 4 -13 16 -21 21 -21
13z"/>
<path d="M384 1068 c-4 -7 -4 -10 1 -6 4 4 21 0 37 -8 30 -15 30 -17 25 -72
-4 -32 -9 -105 -13 -164 l-7 -108 -78 -46 c-44 -26 -79 -50 -79 -53 0 -3 23
-18 51 -34 46 -25 52 -26 72 -12 30 21 37 19 37 -9 0 -13 7 -27 15 -30 14 -5
15 24 12 257 l-4 262 -31 18 c-24 14 -32 15 -38 5z m36 -428 c0 -44 -3 -52
-25 -62 -21 -9 -32 -8 -60 5 -19 9 -35 21 -35 27 0 9 97 78 113 79 4 1 7 -22
7 -49z"/>
<path d="M184 1040 c2 -19 6 -42 9 -50 5 -10 -3 -21 -24 -33 -18 -10 -29 -21
-25 -25 4 -3 10 -2 14 4 4 5 20 18 36 28 21 13 25 20 16 26 -7 4 -16 25 -21
46 -8 39 -8 39 -5 4z"/>
<path d="M713 905 c0 -38 2 -53 4 -32 2 20 2 52 0 70 -2 17 -4 1 -4 -38z"/>
<path d="M315 892 c-71 -42 -80 -51 -83 -80 -2 -18 0 -32 3 -32 4 0 47 23 96
52 78 46 89 55 89 80 0 16 -5 28 -12 28 -7 -1 -49 -22 -93 -48z m-45 -66 c0
-16 -18 -31 -27 -22 -8 8 5 36 17 36 5 0 10 -6 10 -14z"/>
<path d="M105 910 c-3 -6 1 -7 9 -4 18 7 21 14 7 14 -6 0 -13 -4 -16 -10z"/>
<path d="M108 833 c8 -3 12 -34 12 -106 0 -56 4 -107 8 -114 7 -11 4 192 -3
215 -2 6 -10 12 -17 11 -10 0 -10 -2 0 -6z"/>
<path d="M991 664 c-1 -7 -124 -80 -273 -165 -150 -84 -280 -157 -289 -162
-12 -8 -53 11 -170 78 -85 49 -171 99 -192 112 -20 13 -37 19 -37 14 0 -10
363 -221 381 -221 13 0 528 285 588 326 1 2 1 9 -2 16 -3 8 -6 8 -6 2z"/>
<path d="M575 586 c-18 -13 -18 -14 8 -9 15 3 27 9 27 14 0 13 -13 11 -35 -5z"/>
<path d="M524 555 c-16 -12 -16 -14 -3 -15 9 0 22 -7 29 -15 7 -8 20 -15 29
-15 10 0 7 5 -9 13 -14 7 -24 21 -24 30 2 21 2 21 -22 2z"/>
<path d="M628 544 c-38 -20 -36 -28 2 -9 17 9 30 18 30 20 0 7 -1 6 -32 -11z"/>
<path d="M955 455 c0 -19 3 -35 8 -35 4 0 7 13 7 29 0 23 5 31 23 34 17 3 16
5 -8 6 -28 1 -30 -1 -30 -34z"/>
<path d="M1190 480 c0 -5 -6 -10 -14 -10 -8 0 -17 -4 -20 -9 -4 -5 4 -7 16 -3
18 4 20 2 16 -16 -4 -14 -1 -22 6 -22 8 0 11 12 8 35 -4 32 -12 49 -12 25z"/>
<path d="M1799 483 c-4 -42 -3 -63 3 -63 4 0 8 16 8 35 0 19 -2 35 -5 35 -3 0
-5 -3 -6 -7z"/>
<path d="M1516 471 c-4 -5 -2 -12 3 -15 5 -4 12 -2 15 3 4 5 2 12 -3 15 -5 4
-12 2 -15 -3z"/>
<path d="M1022 445 c0 -16 2 -22 5 -12 2 9 2 23 0 30 -3 6 -5 -1 -5 -18z"/>
<path d="M1050 445 c0 -14 4 -25 9 -25 4 0 6 11 3 25 -2 14 -6 25 -8 25 -2 0
-4 -11 -4 -25z"/>
<path d="M1089 443 c5 -26 6 -26 9 -5 2 12 7 22 12 22 5 0 11 -10 13 -22 4
-20 4 -19 6 5 1 22 -3 27 -23 27 -20 0 -22 -4 -17 -27z"/>
<path d="M1250 445 c0 -14 4 -25 9 -25 4 0 6 11 3 25 -2 14 -6 25 -8 25 -2 0
-4 -11 -4 -25z"/>
<path d="M1285 445 c0 -14 3 -25 8 -25 4 0 7 9 7 21 0 15 5 19 15 15 8 -3 15
-1 15 4 0 6 -10 10 -22 10 -18 0 -23 -6 -23 -25z"/>
<path d="M1348 445 c2 -14 8 -25 12 -25 4 0 5 11 2 25 -2 14 -8 25 -12 25 -4
0 -5 -11 -2 -25z"/>
<path d="M1383 454 c-3 -8 -2 -19 4 -25 5 -5 9 1 11 16 2 28 -6 33 -15 9z"/>
<path d="M1416 457 c3 -10 9 -15 12 -12 3 3 0 11 -7 18 -10 9 -11 8 -5 -6z"/>
<path d="M1450 446 c0 -14 4 -26 9 -26 5 0 7 9 4 20 -4 14 0 20 10 20 9 0 18
-9 20 -20 4 -17 4 -16 3 2 -1 16 -8 24 -23 26 -19 3 -23 -1 -23 -22z"/>
<path d="M1570 463 c5 -2 10 -13 10 -24 0 -10 4 -19 10 -19 13 0 -4 43 -19 46
-6 1 -7 0 -1 -3z"/>
<path d="M1650 459 c0 -6 6 -17 14 -24 11 -12 14 -10 14 11 0 14 -6 24 -14 24
-8 0 -14 -5 -14 -11z"/>
<path d="M1729 453 c-11 -15 -11 -16 1 -5 23 20 43 15 37 -9 -4 -16 -3 -19 5
-11 14 14 3 42 -15 42 -8 0 -21 -8 -28 -17z"/>
<path d="M1150 430 c0 -5 5 -10 11 -10 5 0 7 5 4 10 -3 6 -8 10 -11 10 -2 0
-4 -4 -4 -10z"/>
<path d="M956 355 c4 -8 8 -15 10 -15 2 0 4 7 4 15 0 8 -4 15 -10 15 -5 0 -7
-7 -4 -15z"/>
<path d="M990 352 c0 -10 7 -19 15 -19 8 0 15 9 15 19 0 10 -7 18 -15 18 -8 0
-15 -8 -15 -18z"/>
<path d="M1036 355 c4 -8 7 -15 9 -15 2 0 5 7 9 15 3 9 0 15 -9 15 -9 0 -12
-6 -9 -15z"/>
<path d="M1129 328 c4 -36 5 -39 11 -18 7 27 2 60 -9 60 -4 0 -5 -19 -2 -42z"/>
<path d="M1230 330 c0 -22 4 -40 8 -40 4 0 6 15 4 34 -3 27 0 35 15 39 15 4
14 5 -4 6 -20 1 -23 -4 -23 -39z"/>
<path d="M1284 333 c1 -19 5 -28 10 -23 6 6 5 18 -1 32 -10 21 -10 21 -9 -9z"/>
<path d="M1912 320 c0 -19 2 -27 5 -17 2 9 2 25 0 35 -3 9 -5 1 -5 -18z"/>
<path d="M1060 321 c0 -11 3 -22 8 -24 4 -3 7 6 7 19 0 13 -3 24 -7 24 -5 0
-8 -9 -8 -19z"/>
<path d="M1313 324 c-3 -8 -1 -20 4 -25 5 -5 9 1 9 16 0 29 -4 32 -13 9z"/>
<path d="M1346 325 c4 -8 8 -15 10 -15 2 0 4 7 4 15 0 8 -4 15 -10 15 -5 0 -7
-7 -4 -15z"/>
<path d="M1375 330 c3 -5 8 -10 11 -10 2 0 4 5 4 10 0 6 -5 10 -11 10 -5 0 -7
-4 -4 -10z"/>
<path d="M1433 324 c-3 -8 -1 -20 6 -27 8 -8 11 -4 9 16 -3 31 -6 34 -15 11z"/>
<path d="M1533 324 c-3 -8 0 -21 7 -27 10 -10 11 -7 5 12 -6 21 -5 23 14 18
11 -3 21 -1 21 4 0 16 -40 10 -47 -7z"/>
<path d="M1604 331 c3 -5 16 -7 28 -3 18 4 20 2 15 -18 -4 -16 -3 -20 5 -12
17 17 1 42 -27 42 -15 0 -24 -4 -21 -9z"/>
<path d="M1687 333 c13 -2 24 -13 26 -26 l4 -22 2 22 c0 12 9 24 19 26 9 3 -3
5 -28 4 -25 0 -35 -2 -23 -4z"/>
<path d="M1777 333 c-4 -3 -7 -13 -7 -21 0 -18 13 -7 16 13 2 17 1 18 -9 8z"/>
<path d="M1857 334 c12 -3 24 -14 26 -25 4 -15 4 -14 3 3 -1 17 -8 23 -26 25
-21 1 -21 0 -3 -3z"/>
<path d="M970 311 c0 -12 5 -21 10 -21 6 0 10 6 10 14 0 8 -4 18 -10 21 -5 3
-10 -3 -10 -14z"/>
<path d="M1027 324 c-4 -4 -7 -14 -7 -23 0 -11 3 -12 11 -4 6 6 10 16 7 23 -2
6 -7 8 -11 4z"/>
<path d="M1169 303 c-13 -16 -12 -17 4 -4 16 13 21 21 13 21 -2 0 -10 -8 -17
-17z"/>
<path d="M1397 313 c-4 -3 -7 -11 -7 -17 0 -6 5 -5 12 2 6 6 9 14 7 17 -3 3
-9 2 -12 -2z"/>
<path d="M1500 300 c0 -5 5 -10 11 -10 5 0 7 5 4 10 -3 6 -8 10 -11 10 -2 0
-4 -4 -4 -10z"/>
<path d="M1840 300 c0 -5 5 -10 11 -10 5 0 7 5 4 10 -3 6 -8 10 -11 10 -2 0
-4 -4 -4 -10z"/>
</g>
</svg>
